<?xml version="1.0" encoding="utf-8"?>
<svg width="800px" height="800px" viewBox="0 0 386.143 386.143" xmlns="http://www.w3.org/2000/svg">
  <path d="M293.071,57.795h-18.895c-5.522,0-10,4.478-10,10v1.404c0,2.276-0.401,4.456-1.105,6.497V46c0-5.522-4.477-10-10-10h-30h-30h-20V10c0-5.522-4.478-10-10-10h-30c-5.522,0-10,4.478-10,10v65.696c-0.703-2.041-1.104-4.221-1.104-6.497v-1.404c0-5.522-4.477-10-10-10H93.071c-5.522,0-10,4.478-10,10v286.543c0,17.537,14.266,31.805,31.801,31.805h156.398c17.535,0,31.801-14.268,31.801-31.805V67.795C303.071,62.272,298.594,57.795,293.071,57.795z" fill="#064e3b" />
  <path d="M243.071,86.398h-10V56h10V86.398z M213.071,86.398h-10V56h10V86.398z M183.071,56v30.398h-10V56H183.071z" fill="#cbd5f5" />
  <path d="M141.967,109.199h102.209c18.836,0,34.673-13.086,38.895-30.646v151.305l-83.391-73.415c-3.777-3.326-9.438-3.324-13.215,0l-83.395,73.415V78.554C107.294,96.113,123.131,109.199,141.967,109.199z" fill="#10b981" />
  <path d="M271.271,366.143H114.872c-6.507,0-11.801-5.296-11.801-11.805v-97.834l90.002-79.231l89.998,79.231v97.834C283.071,360.847,277.777,366.143,271.271,366.143z" fill="#1e293b" />
</svg>
