<?xml version='1.0' encoding='iso-8859-1'?>
<!DOCTYPE svg PUBLIC '-//W3C//DTD SVG 1.1//EN' 'http://www.w3.org/Graphics/SVG/1.1/DTD/svg11.dtd'>
<!-- Original icon recolored -->
<svg height="800px" width="800px" version="1.1" xmlns="http://www.w3.org/2000/svg" viewBox="0 0 468.034 468.034">
  <defs>
    <linearGradient id="ecigBody" x1="0%" y1="0%" x2="100%" y2="0%">
      <stop offset="0%" stop-color="#60a5fa" />
      <stop offset="100%" stop-color="#2563eb" />
    </linearGradient>
    <linearGradient id="ecigDetail" x1="0%" y1="0%" x2="0%" y2="100%">
      <stop offset="0%" stop-color="#1e3a8a" />
      <stop offset="100%" stop-color="#0f172a" />
    </linearGradient>
  </defs>
  <g fill="none" stroke="none" stroke-width="1">
    <path fill="url(#ecigBody)" d="m285.182,80.759c-7.954-1.811-15.935-3.18-23.93-4.143-7.527-19.622-8.1-38.752-1.732-58.375 1.375-4.235 0.634-8.912-1.981-12.51-2.609-3.588-6.816-5.731-11.255-5.731h-24.533c-4.439,0-8.646,2.143-11.255,5.732-2.615,3.598-3.356,8.274-1.981,12.51 6.368,19.624 5.795,38.753-1.733,58.375-7.994,0.962-15.975,2.332-23.929,4.143-3.413,0.777-5.835,3.812-5.835,7.313v372.462c0,4.142 3.358,7.5 7.5,7.5h99c4.142,0 7.5-3.358 7.5-7.5v-372.463c-0.001-3.5-2.423-6.536-5.836-7.313z"/>
    <path fill="#e0f2fe" d="m192.017 187.072h84v35.731h-84z"/>
    <path fill="#e0f2fe" d="m223.222 15h21.59c-6.2 20.005-6.145 40.218.101 60.243-7.263-.349-14.53-.349-21.793 0 6.247-20.025 6.302-40.238.102-60.243z"/>
    <path fill="url(#ecigDetail)" d="m256.517,193.438h-45c-6.341,0-11.5,5.159-11.5,11.5s5.159,11.5 11.5,11.5h45c6.341,0 11.5-5.159 11.5-11.5s-5.159-11.5-11.5-11.5z"/>
    <path fill="#1f2937" opacity="0.75" d="m209.017,170.303c6.341,0 11.5-5.159 11.5-11.5v-28.504c0-6.341-5.159-11.5-11.5-11.5s-11.5,5.159-11.5,11.5v28.504c0,6.341 5.159,11.5 11.5,11.5z"/>
    <path fill="#1f2937" opacity="0.65" d="m234.017,170.303c6.341,0 11.5-5.159 11.5-11.5v-28.504c0-6.341-5.159-11.5-11.5-11.5s-11.5,5.159-11.5,11.5v28.504c0,6.341 5.159,11.5 11.5,11.5z"/>
    <path fill="#1f2937" opacity="0.65" d="m259.017,170.303c6.341,0 11.5-5.159 11.5-11.5v-28.504c0-6.341-5.159-11.5-11.5-11.5s-11.5,5.159-11.5,11.5v28.504c0,6.341 5.159,11.5 11.5,11.5z"/>
    <circle cx="234.02" cy="248.996" r="7.5" fill="#fbbf24" />
  </g>
</svg>
